<?xml version="1.0" encoding="utf-8"?>
<!-- Generator: Adobe Illustrator 24.1.1, SVG Export Plug-In . SVG Version: 6.00 Build 0)  -->
<svg version="1.1" id="Layer_1" xmlns="http://www.w3.org/2000/svg" xmlns:xlink="http://www.w3.org/1999/xlink" x="0px" y="0px"
	 viewBox="0 0 512 512" style="enable-background:new 0 0 512 512;" xml:space="preserve">
<style type="text/css">
	.st0{fill-rule:evenodd;clip-rule:evenodd;fill:#FF9900;}
</style>
<g>
	<path class="st0" d="M254.1,510.7c-67.3-0.4-127.1-22.6-180.5-63c-19.1-14.4-36.4-30.7-52.2-48.7l-1.6-1.9c-0.2-2.5-0.2-5-0.2-7.4
		c2.1,0.3,4.7,0.1,6.4,1.1c14.3,8.9,28,18.7,42.7,27c42.4,23.9,87.8,39.4,136.1,46.8c25.2,3.8,50.5,5.1,75.7,3.6
		c48.3-2.8,94.4-14.8,138.4-35.2c6.9-3.2,13.7-6.7,20.6-10.2c3.3-1.7,6.6-2.4,9.4,0.6c3,3.1,2.8,6.9,0.8,10.4c-1.2,2-3,3.7-4.7,5.3
		c-39.3,34.8-85.2,56.2-136.4,66.2c-17.7,3.4-35.9,4.6-53.9,6.9L254.1,510.7 M443.7,402c-9.7,0.9-20.5,2-31.3,3
		c-2.4,0.2-4.8,0.4-7.1,0.2c-2.7-0.2-3.2-1.8-1.7-3.8l3.5-2.9c11.4-7.7,24.3-11,37.7-12.8c12.7-1.7,25.4-1.3,37.8,2
		c8.4,2.2,10.2,3.2,9.6,13c-1.7,25.7-9.9,49.1-28.6,67.9l-3,2.7l-5.1,0.9l0.2-4.7c4.4-13.5,9.1-27,13.5-40.5
		c0.9-2.7,1.2-5.6,1.6-8.5c1.1-9.1-2.6-13.7-12.2-15.1C454,402.7,449.4,402.5,443.7,402 M296.9,201c-18.3-0.1-35.8,0.7-52.6,6.3
		c-8.3,2.8-16.7,6.3-23.8,11.2c-19.7,13.6-24.8,33.9-23.2,56.6c0.9,12,4.5,23.1,13.3,31.7c12.6,12.3,33.7,14,50.7,3.9
		c14.8-8.7,23.6-22.2,29.3-37.9C299,249.6,296.3,225.5,296.9,201 M310.4,336.5c-6.6,6-12.7,11.6-18.9,17.2
		c-23.8,21.2-52,30.7-83.6,31.3c-17.2,0.3-34-1-50.1-7.3c-28.6-11.3-46.9-32.2-54.3-61.9c-9.2-36.9-6.1-72.4,15.7-104.6
		c16.1-23.8,39.4-38,66.4-46.6c23.1-7.4,47-10.7,71-13.4c13.2-1.5,26.4-2.8,40.2-4.2c-0.4-16.5,1.9-33.1-3.9-49
		c-5.1-14.1-16-21.4-30.2-24.6c-21.5-4.9-45.8,3.1-57.3,20c-3.9,5.7-6.3,12.7-8.4,19.5c-3,9.5-7.3,12.6-17.2,11.4
		c-19.2-2.3-38.6-4.2-57.8-6.4c-9.6-1.1-13.3-6.6-11.5-15.8c8.5-42.2,32.9-71.7,72.7-87.3c47-18.3,95-19.8,142.6-2.2
		c39.4,14.5,61.1,43.4,64,85.6c1,14.2,1.1,28.6,1.2,42.8c0.1,36.9,0.3,73.9-0.1,110.9c-0.2,20.6,5.5,38.8,18,55.1
		c3,3.9,6.1,7.8,8.6,12c4.2,7,3.1,12.3-3,17.5c-15.7,13.6-31.4,27.2-47.1,40.8c-8.6,7.5-14.6,7.4-23.3,0.1
		c-11.4-9.6-20.8-21-28.9-33.5C313.8,341.4,312.2,339.2,310.4,336.5"/>
</g>
</svg>
